# xmcd
#
# Track frame offsets: 
#        150
#        12402
#        25652
#        38164
#        50711
#        61798
#        75590
#        88632
#        104254
#        116181
#        126796
#        140845
#        152685
#        164107
#
# Disc length: 2344 seconds
#
# Revision: 3
# Processed by: cddbd v1.5.2PL0 Copyright (c) Steve Scherf et al.
# Submitted via: ExactAudioCopy v0.95a4
#
DISCID=bb09260e
DTITLE=Elmore James - Dust My Broom (MJB023)
DYEAR=2000
DGENRE=Blues
TTITLE0=Mean Mistreatin' Mama
TTITLE1=Dust My Broom
TTITLE2=Standing At The Crossroads
TTITLE3=The Sky Is Crying
TTITLE4=Coming Home
TTITLE5=Hand In Hand
TTITLE6=Held My Baby Last Night
TTITLE7=I Believe
TTITLE8=Pickin' The Blues
TTITLE9=Done Somebody Wrong
TTITLE10=It Hurts Me Too
TTITLE11=Fine Little Mama
TTITLE12=Rollin' And Tumblin'
TTITLE13=Look On Yonder Wall
EXTD=\n YEAR: 1998
EXTT0=
EXTT1=
EXTT2=
EXTT3=
EXTT4=
EXTT5=
EXTT6=
EXTT7=
EXTT8=
EXTT9=
EXTT10=
EXTT11=
EXTT12=
EXTT13=
PLAYORDER=
